<svg width="768" height="619" viewBox="0 0 768 619" fill="none" xmlns="http://www.w3.org/2000/svg">
<path fill-rule="evenodd" clip-rule="evenodd" d="M386.797 172.379L396.04 487.57C397.499 487.869 398.991 487.998 400.483 487.954C402.247 487.51 403.966 486.896 405.612 486.117C465.897 457.483 496.533 407.785 501.113 343.167C505.83 276.245 482.929 215.247 449.797 158.473C436.744 136.166 421.805 114.913 406.468 93.0916C399.537 83.2269 392.521 73.2465 385.563 63C333.807 124.162 295.382 187.052 276.512 260.859C265.432 304.166 262.168 346.842 276.924 390.396C291.679 433.95 319.792 465.162 360.933 484.91C365.238 486.591 369.643 488.004 374.125 489.134C375.341 450.873 376.547 412.884 377.747 375.065C379.903 307.13 382.041 239.755 384.191 172.379H386.797ZM393.297 493.632H377.088V556.302H393.297V493.632Z" fill="white"/>
</svg>
